# xmcd
#
# Track frame offsets:
#	150
#	15970
#	30989
#	48376
#	64715
#	79879
#	96159
#	111989
#	130048
#	150372
#	169797
#	185407
#	200584
#	216908
#
# Disc length: 3074 seconds
#
# Revision: 9
# Processed by: cddbd v1.5.2PL0 Copyright (c) Steve Scherf et al.
# Submitted via: Jack! The Knife 20 Magnifico
#
DISCID=b00c000e
DTITLE=Rage - Perfect Man
DYEAR=1988
DGENRE=Metal
TTITLE0=Wasteland
TTITLE1=In The Darkest Hour
TTITLE2=Animal Instinct
TTITLE3=Perfect Man
TTITLE4=Sinister Thinking
TTITLE5=Supersonic Hydromatic
TTITLE6=Don't Fear The Winter
TTITLE7=Death In The Afternoon
TTITLE8=A Pilgrim's Path
TTITLE9=Time And Place
TTITLE10=Round Trip
TTITLE11=Between The Lines
TTITLE12=Symbols Of Our Fear
TTITLE13=Neurotic
EXTD=Armin Sabol
EXTT0=Peter Wagner
EXTT1=Peter Wagner
EXTT2=Schmidt, Wagner
EXTT3=Peter Wagner
EXTT4=Schmidt, Wagner
EXTT5=Schmidt, Wagner
EXTT6=Peter Wagner
EXTT7=Peter Wagner
EXTT8=Peter Wagner
EXTT9=Schmidt, Wagner
EXTT10=Schmidt, Wagner
EXTT11=Schmidt, Wagner
EXTT12=Peter Wagner
EXTT13=Peter Wagner
PLAYORDER=
